<svg xmlns="http://www.w3.org/2000/svg" viewBox="0 0 100 100" width="100%" height="100%">
  <!-- Silueta exacta del hotel en azul marino premium -->
  <path d="M 25 15 C 22 15, 20 17, 20 20 L 20 24 C 20 25, 21 26, 22 26 L 26 26 L 26 74 L 22 74 C 21 74, 20 75, 20 76 L 20 80 C 20 83, 22 85, 25 85 L 75 85 C 78 85, 80 83, 80 80 L 80 76 C 80 75, 79 74, 78 74 L 74 74 L 74 26 L 78 26 C 79 26, 80 25, 80 24 L 80 20 C 80 17, 78 15, 75 15 Z M 34 32 L 42 32 C 43 32, 44 33, 44 34 L 44 42 C 44 43, 43 44, 42 44 L 34 44 C 33 44, 32 43, 32 42 L 32 34 C 32 33, 33 32, 34 32 Z M 46 32 L 54 32 C 55 32, 56 33, 56 34 L 56 42 C 56 43, 55 44, 54 44 L 46 44 C 45 44, 44 43, 44 42 L 44 34 C 44 33, 45 32, 46 32 Z M 58 32 L 66 32 C 67 32, 68 33, 68 34 L 68 42 C 68 43, 67 44, 66 44 L 58 44 C 57 44, 56 43, 56 42 L 56 34 C 56 33, 57 32, 58 32 Z M 34 48 L 42 48 C 43 48, 44 49, 44 50 L 44 58 C 44 59, 43 60, 42 60 L 34 60 C 33 60, 32 59, 32 58 L 32 50 C 32 49, 33 48, 34 48 Z M 46 48 L 54 48 C 55 48, 56 49, 56 50 L 56 58 C 56 59, 55 60, 54 60 L 46 60 C 45 60, 44 59, 44 58 L 44 50 C 44 49, 45 48, 46 48 Z M 58 48 L 66 48 C 67 48, 68 49, 68 50 L 68 58 C 68 59, 67 60, 66 60 L 58 60 C 57 60, 56 59, 56 58 L 56 50 C 56 49, 57 48, 58 48 Z M 50 63 C 58 63, 64 69, 64 77 L 64 85 L 36 85 L 36 77 C 36 69, 42 63, 50 63 Z" fill="#003064" />
</svg>
